<svg width="24" height="24" viewBox="0 0 24 24" fill="none" xmlns="http://www.w3.org/2000/svg">
<path d="M6.1875 1.07793C5.37656 1.22969 4.70156 1.56191 4.11563 2.09922C3.54844 2.62012 3.17344 3.26406 3.05156 3.95312C3.01875 4.12949 3 6.65195 3 11.5205C3 18.4768 3.00469 18.8377 3.08906 19.1904C3.25781 19.9123 3.6375 20.507 4.24219 21.0115C4.84219 21.5119 5.42813 21.7826 6.21094 21.9221C6.60938 21.9959 6.95156 22 11.9813 22C16.65 22 17.3813 21.9918 17.7188 21.9344C18.5203 21.8031 19.1484 21.5201 19.7438 21.0238C20.3672 20.5029 20.7422 19.9164 20.9109 19.1904C20.9953 18.8418 21 18.5219 21 13.4195V8.02188L18.7172 8.00137C16.7719 7.98906 16.3828 7.97676 16.125 7.91523C14.5969 7.5707 13.5047 6.63555 13.1156 5.32715C13.0219 5.01953 13.0125 4.86777 12.9984 2.99746L12.975 1L9.78281 1.0041C6.89531 1.0041 6.54844 1.01231 6.1875 1.07793ZM12.9188 9.09649C14.3578 9.49844 15.2438 10.8273 14.9344 12.1152C14.7563 12.8699 14.1562 13.559 13.3781 13.9117C12.9984 14.084 12.9984 14.084 12.975 14.2686C12.9422 14.4941 12.7875 14.7033 12.5438 14.8551C12.3797 14.9535 12.3141 14.9658 12 14.9658C11.6859 14.9658 11.6203 14.9535 11.4563 14.8551C11.3578 14.7936 11.2219 14.6746 11.1562 14.5885C11.0438 14.4449 11.0391 14.4039 11.025 13.7805C11.0109 13.1529 11.0156 13.1119 11.1234 12.9355C11.2875 12.6607 11.5453 12.5213 12.0094 12.4598C12.4734 12.3941 12.7125 12.267 12.8766 11.9963C13.2188 11.4303 12.7313 10.7207 12 10.7207C11.4703 10.7207 11.0625 11.0775 11.0016 11.5861C10.9453 12.1111 10.5609 12.4434 10.0125 12.4434C9.68906 12.4434 9.56719 12.4023 9.33281 12.2178C9.06563 12.0045 8.98125 11.783 9.01406 11.377C9.07031 10.7699 9.36563 10.2121 9.86719 9.76094C10.6734 9.03906 11.8172 8.79297 12.9188 9.09649ZM12.4734 15.901C13.0453 16.1676 13.1625 16.8525 12.6984 17.2791C12.4453 17.517 11.9531 17.5949 11.6016 17.4514C11.1891 17.2873 10.9969 17.0002 11.025 16.6023C11.0578 16.1266 11.4516 15.8066 12 15.8066C12.1875 15.8066 12.3281 15.8354 12.4734 15.901Z" fill="#9FA6B0"/>
<path d="M15 2.92207C15 4.39863 15.0141 4.90019 15.0656 5.08301C15.2578 5.81426 15.8672 6.39551 16.5938 6.55019C16.7719 6.59238 17.4141 6.60176 18.7172 6.59238L20.5781 6.57832L17.7891 3.78926L15 1.00019V2.92207Z" fill="#9FA6B0"/>
</svg>
