<?xml version="1.0" encoding="UTF-8"?>
<svg id="Layer_1" data-name="Layer 1" xmlns="http://www.w3.org/2000/svg" viewBox="0 0 494.76 227.06">
  <defs>
    <style>
      .cls-1 {
        fill: #7e86fe;
      }

      .cls-2 {
        fill: #3301c8;
      }

      .cls-3 {
        fill: #614dff;
      }

      .cls-4 {
        fill: #6e5cff;
      }

      .cls-5 {
        fill: #121212;
      }
    </style>
  </defs>
  <path class="cls-5" d="m330.39,162.2c-7.55,0-14.19-2.04-19.82-6.26-5.63-4.22-9.97-9.8-13.17-16.75-3.07-6.94-4.6-14.7-4.6-23.14s1.79-16.47,5.24-23.55c3.58-7.08,8.57-12.66,15.22-16.75,6.65-4.08,14.58-6.13,23.79-6.13s17.26,2.04,23.66,6.26c6.39,4.22,11.25,9.8,14.71,16.88,3.32,7.08,5.12,14.84,5.12,23.42v44.11h-22.38v-14.7h-.38c-1.66,3.13-3.71,5.99-6.14,8.44-2.43,2.59-5.37,4.63-8.82,6.13-3.45,1.36-7.55,2.04-12.4,2.04Zm6.39-20.29c4.35,0,8.06-1.09,11.25-3.4,3.2-2.31,5.63-5.45,7.29-9.39,1.66-3.95,2.56-8.44,2.56-13.21s-.9-9.26-2.56-13.07c-1.66-3.81-4.09-6.94-7.29-9.26-3.2-2.31-6.91-3.4-11.25-3.4s-8.31,1.09-11.51,3.4c-3.2,2.31-5.63,5.45-7.29,9.26-1.66,3.81-2.56,8.3-2.56,13.07s.9,9.26,2.56,13.21c1.66,3.95,4.09,7.08,7.29,9.39,3.2,2.31,7.03,3.4,11.51,3.4Z"/>
  <path class="cls-5" d="m412.87,61.18c-3.84,0-7.03-1.5-9.85-4.36-2.81-3-4.09-6.4-4.09-10.48s1.41-7.49,4.09-10.48c2.81-2.99,6.01-4.36,9.85-4.36s7.03,1.5,9.85,4.36c2.81,3,4.09,6.4,4.09,10.48s-1.41,7.49-4.09,10.48c-2.69,2.86-6.01,4.36-9.85,4.36Zm-11.25,98.98v-88.49h22.51v88.49h-22.51Z"/>
  <polygon class="cls-1" points="174.26 69.79 98.33 24.7 21.75 69.79 21.75 107.86 76.59 139.36 55.29 152.28 0 120.55 0 56.42 98.33 0 195.56 55.97 174.26 69.79"/>
  <polygon class="cls-2" points="65.04 108.09 65.04 94.27 98.33 75.01 131.66 93.81 152.96 82.71 98.33 50.08 42.83 82.03 42.83 94.95 65.04 108.09"/>
  <polygon class="cls-3" points="152.96 145.03 55.75 201.68 0 170.18 0 145.03 55.52 176.53 132.11 132.79 152.96 145.03"/>
  <polygon class="cls-4" points="76.48 213.24 174.49 156.81 196.47 170.18 98.33 227.06 76.48 213.24"/>
  <path d="m477.79,91.07c-4.61,0-7.4,1.19-8.39,3.58-.99,2.39-.03,5.47,2.88,9.25l17.35,23.02c2.85,3.78,4.51,7.74,4.98,11.88.46,4.14-.11,7.85-1.73,11.14-1.62,3.29-4.28,6-7.98,8.14-3.7,2.14-8.02,3.21-12.95,3.21h-25.16v-19.41h14.72c4.82,0,7.78-1.26,8.88-3.78,1.1-2.52.03-5.98-3.21-10.36l-17.35-23.02c-1.86-2.52-3.18-5.29-3.95-8.31-.77-3.01-.86-5.96-.29-8.84.58-2.88,1.7-5.51,3.37-7.89,1.67-2.39,4.14-4.32,7.4-5.8,3.26-1.48,7.03-2.22,11.31-2.22h24.26v19.41h-14.14Z"/>
  <path d="m257.63,161.29c-15.02,0-26.61-3.9-34.77-11.69-8.16-7.79-12.24-19.23-12.24-34.31,0-7.76,1.14-14.6,3.42-20.51,2.28-5.91,5.5-10.7,9.66-14.39,4.16-3.68,9.08-6.46,14.77-8.31,5.68-1.86,12.07-2.79,19.16-2.79h21.01v19.92h-21.18c-7.82,0-13.92,2.11-18.31,6.33-4.39,4.22-6.58,10.8-6.58,19.75s2.21,15.25,6.63,19.58c4.42,4.33,10.51,6.5,18.27,6.5h21.18v19.92h-21.01Z"/>
</svg>