<svg width="46" height="53" viewBox="0 0 46 53" fill="none" xmlns="http://www.w3.org/2000/svg">
<g id="Layer_1" clip-path="url(#clip0_754_13083)">
<path id="Vector" d="M40.7969 16.2889L23.0192 5.76834L5.09579 16.2889V25.1821L17.931 32.5319L12.9425 35.5498L0 28.1388V13.1717L23.0192 0L45.7854 13.0647L40.7969 16.2889Z" fill="#614DFF"/>
<path id="Vector_2" d="M15.2262 25.2355V22.0037L23.0193 17.5113L30.8277 21.8967L35.8085 19.3067L23.0193 11.6895L10.0308 19.1463V22.1642L15.2262 25.2355Z" fill="#3301C8"/>
<path id="Vector_3" d="M35.8084 33.8538L13.0498 47.0789L0 39.7291V33.8538L12.9962 41.2036L30.9272 30.9963L35.8084 33.8538Z" fill="#6E5CFF"/>
<path id="Vector_4" d="M17.9082 49.7759L40.8507 36.6042L46.0002 39.7291L23.0193 53.0001L17.9082 49.7759Z" fill="#7E86FE"/>
</g>
<defs>
<clipPath id="clip0_754_13083">
<rect width="46" height="53" fill="white"/>
</clipPath>
</defs>
</svg>
