<svg viewBox="0 0 23 22" fill="none" xmlns="http://www.w3.org/2000/svg">
<g id="Group 30">
<path id="Vector" d="M12 11H11.25C11.25 11.3228 11.4566 11.6094 11.7628 11.7115L12 11ZM12.75 6C12.75 5.58579 12.4142 5.25 12 5.25C11.5858 5.25 11.25 5.58579 11.25 6H12.75ZM14.7628 12.7115C15.1558 12.8425 15.5805 12.6301 15.7115 12.2372C15.8425 11.8442 15.6301 11.4195 15.2372 11.2885L14.7628 12.7115ZM12.75 11V6H11.25V11H12.75ZM11.7628 11.7115L14.7628 12.7115L15.2372 11.2885L12.2372 10.2885L11.7628 11.7115ZM21.25 11C21.25 16.1086 17.1086 20.25 12 20.25V21.75C17.9371 21.75 22.75 16.9371 22.75 11H21.25ZM12 20.25C6.89137 20.25 2.75 16.1086 2.75 11H1.25C1.25 16.9371 6.06294 21.75 12 21.75V20.25ZM12 1.75C17.1086 1.75 21.25 5.89137 21.25 11H22.75C22.75 5.06294 17.9371 0.25 12 0.25V1.75ZM3.67461 6.9636C5.17464 3.87586 8.33978 1.75 12 1.75V0.25C7.74382 0.25 4.0668 2.72355 2.32539 6.30815L3.67461 6.9636Z" fill="currentColor"/>
<path id="Vector 175" d="M1.97412 2L3.08141 6.9508L8.13703 6.52991" stroke="currentColor" stroke-width="1.5" stroke-linecap="round" stroke-linejoin="round"/>
</g>
</svg>
