<svg  viewBox="0 0 22 20" fill="none" xmlns="http://www.w3.org/2000/svg">
<g id="Group 29">
<path id="Vector" d="M13 19H11C8.79086 19 7 17.2091 7 15V5C7 2.79086 8.79086 1 11 1H17C19.2091 1 21 2.79086 21 5V12M1 5H4M11 5H17M11 9H17M11 13H14M2.5 19L3.2 18.0667C3.71929 17.3743 4 16.5321 4 15.6667V2.5C4 1.67157 3.32843 1 2.5 1C1.67157 1 1 1.67157 1 2.5V15.6667C1 16.5321 1.28071 17.3743 1.8 18.0667L2.5 19Z" stroke="currentColor" stroke-width="1.5" stroke-linecap="round" stroke-linejoin="round"/>
<path id="Union" fill-rule="evenodd" clip-rule="evenodd" d="M20.3589 18.89C20.5056 19.0366 20.7433 19.0366 20.89 18.89C21.0367 18.7433 21.0367 18.5055 20.89 18.3589L19.0311 16.5L20.89 14.6411C21.0367 14.4945 21.0367 14.2567 20.89 14.11C20.7433 13.9634 20.5055 13.9634 20.3589 14.11L18.5 15.9689L16.6411 14.11C16.4945 13.9633 16.2567 13.9633 16.11 14.11C15.9633 14.2567 15.9633 14.4944 16.11 14.6411L17.9689 16.5L16.11 18.3589C15.9633 18.5056 15.9633 18.7433 16.11 18.89C16.2567 19.0367 16.4944 19.0367 16.6411 18.89L18.5 17.0311L20.3589 18.89Z" fill="currentColor"  stroke-width="0.5" stroke-linecap="round" stroke-linejoin="round"/>
</g>
</svg>
