<svg  viewBox="0 0 32 32" fill="none" xmlns="http://www.w3.org/2000/svg">
<g id="Huge-icon/user/outline/users 02">
<ellipse id="Ellipse 295" cx="16" cy="22.0001" rx="8" ry="3.33333" stroke="currentColor" stroke-width="1.5" stroke-linejoin="round"/>
<circle id="Ellipse 296" cx="16" cy="10.6667" r="4" stroke="currentColor" stroke-width="1.5" stroke-linejoin="round"/>
<path id="Subtract" fill-rule="evenodd" clip-rule="evenodd" d="M8.11483 17.9592C6.67776 18.0606 5.37097 18.3393 4.34058 18.7514C3.68507 19.0136 3.10427 19.3446 2.67507 19.7505C2.24429 20.1579 1.9165 20.6925 1.9165 21.3334C1.9165 21.9743 2.24429 22.5089 2.67507 22.9163C3.10427 23.3222 3.68507 23.6532 4.34058 23.9154C4.9093 24.1429 5.56222 24.3297 6.27478 24.4685C5.83367 23.9195 5.53518 23.3264 5.40587 22.7043C5.22707 22.6473 5.05739 22.5866 4.89767 22.5227C4.34675 22.3023 3.95124 22.0587 3.70573 21.8265C3.46181 21.5958 3.4165 21.4289 3.4165 21.3334C3.4165 21.2379 3.46181 21.071 3.70573 20.8403C3.95124 20.6082 4.34675 20.3645 4.89767 20.1441C5.25044 20.003 5.65177 19.8775 6.09277 19.7721C6.57157 19.0991 7.26085 18.4862 8.11483 17.9592Z" fill="currentColor"/>
<path id="Subtract_2" fill-rule="evenodd" clip-rule="evenodd" d="M26.5942 22.7043C26.4649 23.3264 26.1664 23.9195 25.7253 24.4685C26.4379 24.3297 27.0908 24.1429 27.6595 23.9154C28.315 23.6532 28.8958 23.3222 29.325 22.9163C29.7558 22.5089 30.0836 21.9743 30.0836 21.3334C30.0836 20.6925 29.7558 20.1579 29.325 19.7505C28.8958 19.3446 28.315 19.0136 27.6595 18.7514C26.6291 18.3393 25.3223 18.0606 23.8853 17.9592C24.7392 18.4862 25.4285 19.0991 25.9073 19.7721C26.3483 19.8775 26.7496 20.003 27.1024 20.1441C27.6533 20.3645 28.0488 20.6082 28.2943 20.8403C28.5383 21.071 28.5836 21.2379 28.5836 21.3334C28.5836 21.4289 28.5383 21.5958 28.2943 21.8265C28.0488 22.0587 27.6533 22.3023 27.1024 22.5227C26.9427 22.5866 26.773 22.6473 26.5942 22.7043Z" fill="currentColor"/>
<path id="Subtract_3" fill-rule="evenodd" clip-rule="evenodd" d="M21.9068 13.7601C21.6703 14.2107 21.3838 14.6309 21.0547 15.0133C21.5348 15.2706 22.0836 15.4166 22.6664 15.4166C24.5534 15.4166 26.0831 13.8869 26.0831 11.9999C26.0831 10.1129 24.5534 8.58325 22.6664 8.58325C22.5562 8.58325 22.4471 8.58848 22.3395 8.59869C22.494 9.07249 22.5968 9.56961 22.6413 10.0834C22.6497 10.0833 22.658 10.0833 22.6664 10.0833C23.725 10.0833 24.5831 10.9414 24.5831 11.9999C24.5831 13.0585 23.725 13.9166 22.6664 13.9166C22.3966 13.9166 22.1397 13.8608 21.9068 13.7601Z" fill="currentColor"/>
<path id="Subtract_4" fill-rule="evenodd" clip-rule="evenodd" d="M9.6601 8.59869C9.5525 8.58848 9.44345 8.58325 9.33317 8.58325C7.4462 8.58325 5.9165 10.1129 5.9165 11.9999C5.9165 13.8869 7.4462 15.4166 9.33317 15.4166C9.91603 15.4166 10.4648 15.2706 10.9449 15.0133C10.6158 14.6309 10.3293 14.2107 10.0929 13.7601C9.85992 13.8608 9.60306 13.9166 9.33317 13.9166C8.27462 13.9166 7.4165 13.0585 7.4165 11.9999C7.4165 10.9414 8.27462 10.0833 9.33317 10.0833C9.34157 10.0833 9.34995 10.0833 9.35833 10.0834C9.40285 9.56961 9.50566 9.07249 9.6601 8.59869Z" fill="currentColor"/>
</g>
</svg>
